<svg width="247.000000" height="185.000000" viewBox="0 0 247 185" fill="none" xmlns="http://www.w3.org/2000/svg" xmlns:xlink="http://www.w3.org/1999/xlink">
	<desc>
			Created with Pixso.
	</desc>
	<defs/>
	<path id="Rectangle 5543" d="M-0.9 162.28L246.89 162.28L246.89 162.4L-0.9 162.4L-0.9 162.28Z" fill="#EBEBEB" fill-opacity="1.000000" fill-rule="evenodd"/>
	<path id="Rectangle 5544" d="M214.68 170.25L222.07 170.25L222.07 170.38L214.68 170.38L214.68 170.25Z" fill="#EBEBEB" fill-opacity="1.000000" fill-rule="evenodd"/>
	<path id="Rectangle 5545" d="M158.94 171.6L163.25 171.6L163.25 171.72L158.94 171.72L158.94 171.6Z" fill="#EBEBEB" fill-opacity="1.000000" fill-rule="evenodd"/>
	<path id="Rectangle 5546" d="M195.64 165.65L212.59 165.65L212.59 165.78L195.64 165.78L195.64 165.65Z" fill="#EBEBEB" fill-opacity="1.000000" fill-rule="evenodd"/>
	<path id="Rectangle 5547" d="M32.02 168.21L53.43 168.21L53.43 168.33L32.02 168.33L32.02 168.21Z" fill="#EBEBEB" fill-opacity="1.000000" fill-rule="evenodd"/>
	<path id="Rectangle 5548" d="M57.84 168.21L65.56 168.21L65.56 168.33L57.84 168.33L57.84 168.21Z" fill="#EBEBEB" fill-opacity="1.000000" fill-rule="evenodd"/>
	<path id="Rectangle 5549" d="M78.93 166.55L125.35 166.55L125.35 166.67L78.93 166.67L78.93 166.55Z" fill="#EBEBEB" fill-opacity="1.000000" fill-rule="evenodd"/>
	<path id="Path 25695" d="M116.56 140.17L20.86 140.17C20.11 140.17 19.39 139.87 18.86 139.34C18.33 138.81 18.03 138.09 18.03 137.34L18.03 2.82C18.03 2.07 18.33 1.35 18.86 0.82C19.39 0.29 20.11 0 20.86 0L116.56 0C117.31 0 118.03 0.29 118.56 0.82C119.09 1.35 119.39 2.07 119.39 2.82L119.39 137.34C119.39 138.09 119.09 138.81 118.56 139.34C118.03 139.87 117.31 140.17 116.56 140.17ZM20.86 0.12C20.14 0.12 19.46 0.41 18.95 0.91C18.45 1.42 18.16 2.1 18.16 2.82L18.16 137.34C18.16 138.06 18.45 138.74 18.95 139.25C19.46 139.75 20.14 140.04 20.86 140.04L116.56 140.04C117.28 140.04 117.96 139.75 118.47 139.25C118.97 138.74 119.26 138.06 119.26 137.34L119.26 2.82C119.26 2.11 118.97 1.42 118.47 0.92C117.96 0.41 117.28 0.13 116.56 0.12L20.86 0.12Z" fill="#EBEBEB" fill-opacity="1.000000" fill-rule="nonzero"/>
	<path id="Path 25696" d="M223.76 140.17L128.06 140.17C127.31 140.17 126.59 139.87 126.06 139.34C125.53 138.81 125.23 138.09 125.23 137.34L125.23 2.82C125.23 2.07 125.53 1.35 126.06 0.82C126.59 0.29 127.31 0 128.06 0L223.76 0C224.51 0 225.22 0.29 225.75 0.82C226.29 1.35 226.58 2.07 226.58 2.82L226.58 137.34C226.58 138.09 226.29 138.81 225.76 139.34C225.23 139.87 224.51 140.17 223.76 140.17ZM128.06 0.12C127.34 0.12 126.65 0.41 126.15 0.91C125.64 1.42 125.36 2.1 125.36 2.82L125.36 137.34C125.36 138.06 125.64 138.74 126.15 139.25C126.65 139.75 127.34 140.04 128.06 140.04L223.76 140.04C224.47 140.04 225.16 139.76 225.67 139.25C226.17 138.75 226.46 138.06 226.46 137.34L226.46 2.82C226.46 2.11 226.17 1.42 225.67 0.91C225.16 0.41 224.47 0.12 223.76 0.12L128.06 0.12Z" fill="#EBEBEB" fill-opacity="1.000000" fill-rule="nonzero"/>
	<path id="Rectangle 5550" d="M114.62 162.28L105.39 162.28L105.39 98.9L114.62 98.9L114.62 162.28Z" fill="#E6E6E6" fill-opacity="1.000000" fill-rule="evenodd"/>
	<path id="Path 25697" d="M108.64 162.28L105.39 162.28L105.39 150.24L112.04 150.24L108.64 162.28Z" fill="#F0F0F0" fill-opacity="1.000000" fill-rule="nonzero"/>
	<path id="Rectangle 5551" d="M212.21 162.28L202.98 162.28L202.98 98.9L212.21 98.9L212.21 162.28Z" fill="#E6E6E6" fill-opacity="1.000000" fill-rule="evenodd"/>
	<path id="Rectangle 5552" d="M205.82 158.99L105.39 158.99L105.39 98.9L205.82 98.9L205.82 158.99Z" fill="#F0F0F0" fill-opacity="1.000000" fill-rule="evenodd"/>
	<path id="Path 25698" d="M202.57 162.28L205.82 162.28L205.82 150.24L199.16 150.24L202.57 162.28Z" fill="#F0F0F0" fill-opacity="1.000000" fill-rule="nonzero"/>
	<path id="Rectangle 5553" d="M172.71 153.58L172.71 103.88L202.48 103.88L202.48 153.58L172.71 153.58Z" fill="#E6E6E6" fill-opacity="1.000000" fill-rule="evenodd"/>
	<path id="Path 25699" d="M184.65 105.63L190.54 105.63C193.03 105.65 195.44 104.75 197.3 103.08L177.89 103.08C179.75 104.75 182.16 105.65 184.65 105.63Z" fill="#F0F0F0" fill-opacity="1.000000" fill-rule="nonzero"/>
	<path id="Rectangle 5554" d="M140.72 153.58L140.72 103.88L170.49 103.88L170.49 153.58L140.72 153.58Z" fill="#E6E6E6" fill-opacity="1.000000" fill-rule="evenodd"/>
	<path id="Path 25700" d="M152.36 105.63L158.25 105.63C160.74 105.65 163.15 104.75 165.01 103.08L145.59 103.08C147.45 104.75 149.87 105.65 152.36 105.63Z" fill="#F0F0F0" fill-opacity="1.000000" fill-rule="nonzero"/>
	<path id="Rectangle 5555" d="M108.73 153.58L108.73 103.88L138.5 103.88L138.5 153.58L108.73 153.58Z" fill="#E6E6E6" fill-opacity="1.000000" fill-rule="evenodd"/>
	<path id="Path 25701" d="M120.37 105.63L126.26 105.63C128.75 105.65 131.16 104.75 133.02 103.08L113.6 103.08C115.46 104.75 117.88 105.65 120.37 105.63Z" fill="#F0F0F0" fill-opacity="1.000000" fill-rule="nonzero"/>
	<path id="Rectangle 5556" d="M96.75 162.28L33.78 162.28L33.78 20.72L96.75 20.72L96.75 162.28Z" fill="#F0F0F0" fill-opacity="1.000000" fill-rule="evenodd"/>
	<path id="Rectangle 5557" d="M95.42 162.28L33.78 162.28L33.78 20.72L95.42 20.72L95.42 162.28Z" fill="#F5F5F5" fill-opacity="1.000000" fill-rule="evenodd"/>
	<path id="Rectangle 5558" d="M91.66 23.93L91.66 159.06L37.53 159.06L37.53 23.93L91.66 23.93Z" fill="#F0F0F0" fill-opacity="1.000000" fill-rule="evenodd"/>
	<path id="Path 25702" d="M86.34 49.07C86.34 47.13 85.96 45.21 85.22 43.42C84.48 41.63 83.39 40 82.02 38.63C80.65 37.26 79.02 36.17 77.23 35.43C75.44 34.69 73.52 34.31 71.59 34.31L57.61 34.31C53.7 34.31 49.94 35.86 47.18 38.63C44.41 41.4 42.85 45.15 42.85 49.07L86.34 49.07Z" fill="#FAFAFA" fill-opacity="1.000000" fill-rule="nonzero"/>
	<path id="Rectangle 5559" d="M86.34 118.38L86.34 150.66L42.85 150.66L42.85 118.38L86.34 118.38Z" fill="#F5F5F5" fill-opacity="1.000000" fill-rule="evenodd"/>
	<path id="Rectangle 5560" d="M67.16 58.17L86.34 58.17L86.34 114.22L67.16 114.22L67.16 58.17Z" fill="#F5F5F5" fill-opacity="1.000000" fill-rule="evenodd"/>
	<path id="Rectangle 5561" d="M42.85 58.17L62.04 58.17L62.04 114.22L42.85 114.22L42.85 58.17Z" fill="#F5F5F5" fill-opacity="1.000000" fill-rule="evenodd"/>
	<path id="Path 25703" d="M49.81 85.94L41.95 85.94C41.63 85.94 41.32 85.81 41.09 85.58C40.86 85.35 40.74 85.04 40.74 84.72C40.74 84.4 40.86 84.09 41.09 83.86C41.32 83.63 41.63 83.5 41.95 83.5L49.81 83.5C50.13 83.5 50.44 83.63 50.67 83.86C50.9 84.09 51.03 84.4 51.03 84.72C51.03 85.04 50.9 85.35 50.67 85.58C50.44 85.81 50.13 85.94 49.81 85.94Z" fill="#E0E0E0" fill-opacity="1.000000" fill-rule="nonzero"/>
	<path id="Rectangle 5562" d="M38.51 23.93L38.51 159.06L37.53 159.06L37.53 23.93L38.51 23.93Z" fill="#F0F0F0" fill-opacity="1.000000" fill-rule="evenodd"/>
	<path id="Rectangle 5563" d="M203.36 83.37L136.58 83.37L136.58 20.72L203.36 20.72L203.36 83.37Z" fill="#E6E6E6" fill-opacity="1.000000" fill-rule="evenodd"/>
	<path id="Rectangle 5564" d="M201.67 83.37L134.89 83.37L134.89 20.72L201.67 20.72L201.67 83.37Z" fill="#F5F5F5" fill-opacity="1.000000" fill-rule="evenodd"/>
	<path id="Rectangle 5565" d="M203.36 86.99L131 86.99L131 83.37L203.36 83.37L203.36 86.99Z" fill="#E6E6E6" fill-opacity="1.000000" fill-rule="evenodd"/>
	<path id="Rectangle 5566" d="M197.74 86.99L129.1 86.99L129.1 83.37L197.74 83.37L197.74 86.99Z" fill="#F5F5F5" fill-opacity="1.000000" fill-rule="evenodd"/>
	<path id="Rectangle 5567" d="M198.65 23.98L198.65 80.11L137.92 80.11L137.92 23.98L198.65 23.98Z" fill="#FFFFFF" fill-opacity="1.000000" fill-rule="evenodd"/>
	<path id="Rectangle 5568" d="M169.97 23.98L169.97 80.11L166.6 80.11L166.6 23.98L169.97 23.98Z" fill="#F5F5F5" fill-opacity="1.000000" fill-rule="evenodd"/>
	<path id="Rectangle 5569" d="M139.19 23.98L139.19 80.11L137.92 80.11L137.92 23.98L139.19 23.98Z" fill="#E6E6E6" fill-opacity="1.000000" fill-rule="evenodd"/>
	<path id="Rectangle 5570" d="M171.24 23.98L171.24 80.11L169.97 80.11L169.97 23.98L171.24 23.98Z" fill="#E6E6E6" fill-opacity="1.000000" fill-rule="evenodd"/>
	<path id="Path 25704" d="M145.56 85.03C144.33 72.3 143.47 51.65 144.14 44.75C144.15 44.63 144.18 44.51 144.24 44.41C144.3 44.31 144.38 44.22 144.48 44.15C144.61 44.05 144.76 44 144.92 43.99C145.08 43.98 145.24 44.01 145.38 44.08C145.52 44.16 145.64 44.27 145.72 44.41C145.8 44.54 145.84 44.7 145.83 44.86C145.71 48.28 145.58 56.84 146.31 71.59C146.67 78.94 147.19 83.97 146.83 85.03L145.56 85.03Z" fill="#E6E6E6" fill-opacity="1.000000" fill-rule="nonzero"/>
	<path id="Path 25705" d="M140.98 55.7C137.48 51.82 130.34 49.06 123.06 49.07C120.2 49.08 131.75 53.59 136.56 58.57C140.4 62.71 143.56 67.43 145.93 72.55C145 64.95 144.47 59.58 140.98 55.7Z" fill="#E6E6E6" fill-opacity="1.000000" fill-rule="nonzero"/>
	<path id="Path 25706" d="M147.91 56.88C150.81 52.84 157.52 49.73 164.77 49.37C167.62 49.24 156.78 54.31 152.74 59.51C149.52 63.86 147.06 68.73 145.49 73.91C145.28 66.3 145 60.93 147.91 56.88Z" fill="#E6E6E6" fill-opacity="1.000000" fill-rule="nonzero"/>
	<path id="Path 25707" d="M140.82 41.52C137.86 38.23 131.81 35.89 125.65 35.9C123.23 35.9 133.01 39.73 137.08 43.94C140.33 47.45 143.01 51.44 145.01 55.79C144.23 49.35 143.78 44.81 140.82 41.52Z" fill="#E6E6E6" fill-opacity="1.000000" fill-rule="nonzero"/>
	<path id="Path 25708" d="M146.69 46.38C149.15 42.96 154.83 40.32 160.97 40.02C163.38 39.91 154.21 44.2 150.78 48.61C148.05 52.29 145.97 56.42 144.64 60.81C144.47 54.36 144.23 49.8 146.69 46.38Z" fill="#E6E6E6" fill-opacity="1.000000" fill-rule="nonzero"/>
	<path id="Path 25709" d="M146.05 98.9C144.2 98.9 142.43 98.2 141.09 96.93C139.75 95.66 138.94 93.93 138.83 92.09L138.19 81.03L153.9 81.03L153.27 92.09C153.16 93.93 152.35 95.66 151.01 96.93C149.67 98.2 147.89 98.9 146.05 98.9Z" fill="#E6E6E6" fill-opacity="1.000000" fill-rule="nonzero"/>
	<path id="Path 25710" d="M154.92 83.54L137.18 83.54L136.67 78.94L155.43 78.94L154.92 83.54Z" fill="#E6E6E6" fill-opacity="1.000000" fill-rule="nonzero"/>
	<path id="&lt;Path&gt;" d="M219.09 179.05C219.09 182.15 176.07 184.66 123 184.66C69.93 184.66 26.9 182.15 26.9 179.05C26.9 175.95 69.93 173.44 123 173.44C176.07 173.44 219.09 175.95 219.09 179.05Z" fill="#F5F5F5" fill-opacity="1.000000" fill-rule="evenodd"/>
	<path id="Path 25711" d="M124.93 173.68L120.8 174.15L119.27 164.77L123.41 164.3L124.93 173.68Z" fill="#FFC3BD" fill-opacity="1.000000" fill-rule="nonzero"/>
	<path id="Path 25712" d="M143.46 174.59L139.33 174.59L138.3 165.02L142.43 165.02L143.46 174.59Z" fill="#FFC3BD" fill-opacity="1.000000" fill-rule="nonzero"/>
	<path id="Path 25713" d="M138.99 174.11L144.03 174.11C144.11 174.11 144.19 174.14 144.25 174.19C144.31 174.24 144.36 174.31 144.38 174.39L145.19 178.06C145.21 178.15 145.21 178.24 145.19 178.33C145.17 178.42 145.13 178.51 145.07 178.58C145.01 178.65 144.94 178.7 144.85 178.74C144.77 178.78 144.68 178.8 144.59 178.8C142.97 178.77 141.79 178.67 139.74 178.67C138.49 178.67 134.7 178.8 132.97 178.8C131.27 178.8 131 177.09 131.72 176.93C134.9 176.23 137.3 175.28 138.32 174.36C138.5 174.2 138.74 174.11 138.99 174.11Z" fill="#263238" fill-opacity="1.000000" fill-rule="nonzero"/>
	<path id="Path 25714" d="M120.73 173.44L125.21 172.93C125.29 172.92 125.38 172.94 125.45 172.99C125.52 173.03 125.57 173.1 125.59 173.17L126.82 176.73C126.85 176.82 126.86 176.91 126.85 177C126.84 177.09 126.81 177.18 126.76 177.25C126.71 177.33 126.65 177.4 126.57 177.44C126.49 177.49 126.4 177.52 126.31 177.53C124.69 177.69 122.34 177.86 120.31 178.09C117.93 178.36 117.54 178.99 114.73 178.93C113.03 178.89 112.61 177.16 113.32 177.03C116.57 176.4 117.2 175.91 119.78 173.88C120.05 173.65 120.38 173.5 120.73 173.44Z" fill="#263238" fill-opacity="1.000000" fill-rule="nonzero"/>
	<path id="Path 25715" d="M124.38 53.17C122.99 54.32 121.62 55.31 120.21 56.33C118.8 57.35 117.36 58.3 115.87 59.22C114.39 60.14 112.86 61.02 111.26 61.82C109.63 62.67 107.93 63.38 106.18 63.94C105.72 64.09 105.26 64.21 104.74 64.34C104.24 64.45 103.72 64.53 103.2 64.59C102.27 64.69 101.4 64.73 100.52 64.77C98.78 64.85 97.08 64.85 95.37 64.84C91.96 64.8 88.58 64.64 85.18 64.34L85.13 61.24C88.47 60.81 91.82 60.43 95.13 60.06C96.79 59.88 98.44 59.68 100.06 59.47C100.86 59.36 101.66 59.23 102.4 59.1C102.71 59.04 103.03 58.97 103.34 58.87C103.63 58.77 103.99 58.66 104.32 58.53C105.73 57.95 107.11 57.28 108.43 56.51C109.8 55.73 111.18 54.88 112.52 53.98C113.87 53.09 115.21 52.16 116.54 51.21C117.87 50.26 119.2 49.25 120.45 48.31L124.38 53.17Z" fill="#FFC3BD" fill-opacity="1.000000" fill-rule="nonzero"/>
	<path id="Path 25716" d="M128.42 49.64C127.82 53.55 119.6 59.52 119.6 59.52L113.7 52.2C116.28 49.44 119.02 46.83 121.91 44.39C124.56 42.22 129.06 45.39 128.42 49.64Z" fill="#407BFF" fill-opacity="1.000000" fill-rule="nonzero"/>
	<path id="Path 25717" d="M86.27 61.56L83.93 59.89L83.67 65.17C84.02 65.17 84.37 65.08 84.69 64.92C85 64.75 85.27 64.51 85.47 64.22L86.27 61.56Z" fill="#FFC3BD" fill-opacity="1.000000" fill-rule="nonzero"/>
	<path id="Path 25718" d="M81.81 58.36L81.33 63.53L83.67 65.17L83.93 59.89L81.81 58.36Z" fill="#FFC3BD" fill-opacity="1.000000" fill-rule="nonzero"/>
	<g opacity="0.200000">
		<path id="Path 25719" d="M119.27 164.77L120.06 169.61L124.2 169.14L123.41 164.3L119.27 164.77Z" fill="#000000" fill-opacity="1.000000" fill-rule="nonzero"/>
	</g>
	<g opacity="0.200000">
		<path id="Path 25720" d="M142.43 165.02L138.3 165.02L138.83 169.95L142.97 169.95L142.43 165.02Z" fill="#000000" fill-opacity="1.000000" fill-rule="nonzero"/>
	</g>
	<path id="Path 25721" d="M142.49 44.51C142.8 44.58 143.09 44.71 143.35 44.89C143.6 45.08 143.82 45.31 143.99 45.58C144.15 45.85 144.26 46.15 144.31 46.46C144.36 46.77 144.35 47.09 144.27 47.39C143.37 51.11 142.7 54.89 142.25 58.69C141.85 61.89 141.62 64.94 141.47 67.72C141.13 74.21 141.27 79.16 141.08 80.84C137.85 80.62 125.67 79.77 119.03 79.3C116.79 61.76 119.42 50.56 120.89 46.02C121.12 45.31 121.54 44.68 122.11 44.2C122.68 43.72 123.38 43.41 124.11 43.32C124.96 43.2 125.97 43.1 127.04 43.03C127.41 43.01 127.79 43 128.18 42.99C131.31 43.03 134.44 43.24 137.55 43.64C138.14 43.71 138.74 43.8 139.32 43.89C140.48 44.09 141.58 44.31 142.49 44.51Z" fill="#346AE1" fill-opacity="1.000000" fill-rule="nonzero"/>
	<path id="Path 25722" d="M137.36 33.03C136.56 36 135.58 41.49 137.55 43.65C132.44 47.08 129.18 51.92 128.24 50.87C127.75 50.32 127.53 43.96 128.18 42.99C131.6 42.42 131.69 39.92 131.27 37.54L137.36 33.03Z" fill="#FFC3BD" fill-opacity="1.000000" fill-rule="nonzero"/>
	<path id="Path 25723" d="M137.16 42.41C137.16 42.41 128.83 46.1 127.73 54.34C130.02 51.68 135.09 48.79 135.09 48.79L132.85 48.15C134.27 47.61 135.75 47.21 137.25 46.97C137 45.83 138.32 43.56 138.32 43.56L137.16 42.41Z" fill="#407BFF" fill-opacity="1.000000" fill-rule="nonzero"/>
	<path id="Path 25724" d="M129.64 42.28C129.64 42.28 130.75 46.99 127.73 54.34C127.13 51.77 126.31 49.26 125.28 46.84L127.32 47.39C127.32 47.39 127.22 46.44 125.57 45.18C126.26 44.18 127.12 43.31 128.1 42.61L129.64 42.28Z" fill="#407BFF" fill-opacity="1.000000" fill-rule="nonzero"/>
	<g opacity="0.200000">
		<path id="Path 25725" d="M134.88 34.87L131.27 37.54C131.38 38.09 131.43 38.66 131.44 39.22C132.74 39.12 134.6 37.84 134.83 36.5C134.95 35.97 134.96 35.41 134.88 34.87Z" fill="#000000" fill-opacity="1.000000" fill-rule="nonzero"/>
	</g>
	<path id="Path 25726" d="M126.78 24.42C124.77 24.5 123.65 27.98 125.7 30.84C127.74 33.7 129.5 24.3 126.78 24.42Z" fill="#263238" fill-opacity="1.000000" fill-rule="nonzero"/>
	<path id="Path 25727" d="M136.72 27.47C136.96 31.57 137.3 33.95 135.5 36.28C132.79 39.79 127.55 38.53 126.1 34.59C124.78 31.05 124.61 24.95 128.39 22.85C129.23 22.39 130.16 22.14 131.12 22.14C132.07 22.14 133.01 22.38 133.84 22.84C134.68 23.31 135.38 23.97 135.88 24.78C136.39 25.59 136.67 26.52 136.72 27.47Z" fill="#FFC3BD" fill-opacity="1.000000" fill-rule="nonzero"/>
	<path id="Path 25728" d="M137.32 30.62C136.22 29.98 135.27 29.12 134.5 28.11C133.74 27.09 133.19 25.94 132.88 24.71C131.68 24.99 125.7 27.74 123.86 24.71C122.02 21.67 124.34 19.89 127.78 21.76C126.26 19.07 127.64 17.76 132.42 17.64C137.2 17.53 136.56 20.3 136.56 20.3C136.56 20.3 140.18 18.72 141.46 21.5C142.94 24.69 140.21 30.14 137.32 30.62Z" fill="#263238" fill-opacity="1.000000" fill-rule="nonzero"/>
	<path id="Path 25729" d="M135.74 19.57C135.79 19.57 137.55 19.99 139.59 17.94C139.22 19.69 136.06 20.86 136.06 20.86L135.74 19.57Z" fill="#263238" fill-opacity="1.000000" fill-rule="nonzero"/>
	<path id="Path 25730" d="M138.12 25.56C136.21 24.9 133.9 27.72 134.75 31.13C135.61 34.54 140.69 26.44 138.12 25.56Z" fill="#263238" fill-opacity="1.000000" fill-rule="nonzero"/>
	<path id="Path 25731" d="M139.2 30.88C139.02 31.89 138.45 32.8 137.61 33.4C136.49 34.18 135.48 33.29 135.41 31.99C135.35 30.83 135.87 29.02 137.17 28.75C137.46 28.7 137.75 28.72 138.03 28.81C138.31 28.9 138.56 29.05 138.76 29.26C138.96 29.48 139.11 29.73 139.18 30.02C139.26 30.3 139.27 30.59 139.2 30.88Z" fill="#FFC3BD" fill-opacity="1.000000" fill-rule="nonzero"/>
	<path id="Path 25732" d="M125.25 125.86C126.24 113.77 133.53 80.32 133.53 80.32L119.03 79.3C119.03 79.3 113.44 112.52 113.01 125.12C112.57 138.22 117.84 167.35 117.84 167.35L124.79 166.56C124.79 166.56 124.25 137.99 125.25 125.86Z" fill="#407BFF" fill-opacity="1.000000" fill-rule="nonzero"/>
	<g opacity="0.500000">
		<path id="Path 25733" d="M125.25 125.86C126.24 113.77 133.53 80.32 133.53 80.32L119.03 79.3C119.03 79.3 113.44 112.52 113.01 125.12C112.57 138.22 117.84 167.35 117.84 167.35L124.79 166.56C124.79 166.56 124.25 137.99 125.25 125.86Z" fill="#FFFFFF" fill-opacity="1.000000" fill-rule="nonzero"/>
	</g>
	<g opacity="0.200000">
		<path id="Path 25734" d="M128.07 91.64C125.14 95.38 125.09 108.5 126.22 118.2C127.3 111.2 129 102.32 130.48 94.92L128.07 91.64Z" fill="#000000" fill-opacity="1.000000" fill-rule="nonzero"/>
	</g>
	<path id="Path 25735" d="M126.85 79.85C126.85 79.85 128.42 115.22 130.16 127.2C132.07 140.32 136.92 169 136.92 169L144.49 169C144.49 169 143.25 141.99 142.25 129.1C141.11 114.42 141.08 80.84 141.08 80.84L126.85 79.85Z" fill="#407BFF" fill-opacity="1.000000" fill-rule="nonzero"/>
	<g opacity="0.500000">
		<path id="Path 25736" d="M126.85 79.85C126.85 79.85 128.42 115.22 130.16 127.2C132.07 140.32 136.92 169 136.92 169L144.49 169C144.49 169 143.25 141.99 142.25 129.1C141.11 114.42 141.08 80.84 141.08 80.84L126.85 79.85Z" fill="#FFFFFF" fill-opacity="1.000000" fill-rule="nonzero"/>
	</g>
	<path id="Path 25737" d="M136.01 169.16L144.92 169.16L144.92 166.5L134.96 166.32L136.01 169.16Z" fill="#407BFF" fill-opacity="1.000000" fill-rule="nonzero"/>
	<path id="Path 25738" d="M117.54 168.13L125.82 167.19L125.52 164.52L116.24 165.43L117.54 168.13Z" fill="#407BFF" fill-opacity="1.000000" fill-rule="nonzero"/>
	<path id="Path 25739" d="M130.69 29.35C130.73 29.68 130.59 29.97 130.37 30C130.15 30.02 129.95 29.78 129.91 29.44C129.87 29.11 130.01 28.82 130.23 28.8C130.45 28.77 130.65 29.02 130.69 29.35Z" fill="#263238" fill-opacity="1.000000" fill-rule="nonzero"/>
	<path id="Path 25740" d="M126.95 29.8C126.99 30.13 126.85 30.42 126.63 30.45C126.41 30.47 126.21 30.22 126.17 29.89C126.13 29.56 126.27 29.27 126.49 29.25C126.71 29.22 126.91 29.47 126.95 29.8Z" fill="#263238" fill-opacity="1.000000" fill-rule="nonzero"/>
	<path id="Path 25741" d="M128.16 29.82C127.89 30.88 127.47 31.9 126.92 32.84C127.16 32.98 127.44 33.05 127.71 33.07C127.99 33.09 128.27 33.05 128.53 32.95L128.16 29.82Z" fill="#ED847E" fill-opacity="1.000000" fill-rule="nonzero"/>
	<path id="Path 25742" d="M131.71 28C131.67 28.01 131.63 28.01 131.6 28C131.56 27.99 131.53 27.98 131.51 27.95C131.34 27.77 131.14 27.63 130.91 27.54C130.67 27.45 130.43 27.42 130.18 27.45C130.13 27.46 130.08 27.45 130.04 27.42C130 27.39 129.97 27.34 129.95 27.29C129.95 27.27 129.95 27.24 129.95 27.22C129.96 27.19 129.97 27.17 129.98 27.15C130 27.13 130.02 27.11 130.04 27.09C130.06 27.08 130.09 27.07 130.11 27.07C130.42 27.03 130.73 27.06 131.02 27.17C131.32 27.27 131.58 27.45 131.79 27.68C131.83 27.71 131.85 27.76 131.85 27.82C131.85 27.87 131.83 27.92 131.79 27.95C131.77 27.98 131.74 27.99 131.71 28Z" fill="#263238" fill-opacity="1.000000" fill-rule="nonzero"/>
	<path id="Path 25743" d="M130.27 34.27C130.74 34.17 131.18 33.96 131.56 33.65C131.93 33.35 132.22 32.96 132.41 32.51C132.42 32.49 132.42 32.46 132.41 32.43C132.39 32.41 132.37 32.39 132.35 32.38C132.32 32.37 132.29 32.37 132.27 32.38C132.24 32.39 132.22 32.42 132.21 32.44C132.03 32.85 131.75 33.21 131.41 33.49C131.06 33.77 130.65 33.97 130.22 34.06C130.2 34.07 130.19 34.07 130.18 34.08C130.17 34.09 130.16 34.1 130.15 34.11C130.14 34.12 130.14 34.14 130.14 34.15C130.14 34.16 130.14 34.18 130.14 34.19C130.14 34.2 130.15 34.22 130.16 34.23C130.16 34.24 130.17 34.25 130.19 34.26C130.2 34.26 130.21 34.27 130.22 34.27C130.24 34.27 130.25 34.27 130.27 34.27L130.27 34.27Z" fill="#263238" fill-opacity="1.000000" fill-rule="nonzero"/>
	<path id="Path 25744" d="M125.19 28.71C125.15 28.72 125.11 28.72 125.07 28.71C125.02 28.69 124.98 28.65 124.96 28.6C124.94 28.56 124.93 28.51 124.95 28.46C125.04 28.16 125.21 27.89 125.43 27.67C125.65 27.45 125.92 27.29 126.21 27.19C126.26 27.18 126.32 27.19 126.36 27.22C126.41 27.24 126.44 27.29 126.45 27.34C126.46 27.39 126.45 27.44 126.43 27.48C126.4 27.53 126.36 27.56 126.31 27.57C126.08 27.65 125.87 27.78 125.69 27.96C125.52 28.13 125.39 28.35 125.32 28.58C125.31 28.61 125.29 28.64 125.27 28.66C125.25 28.68 125.22 28.7 125.19 28.71Z" fill="#263238" fill-opacity="1.000000" fill-rule="nonzero"/>
	<path id="Path 25745" d="M137.63 174.83C137.34 174.85 137.06 174.78 136.83 174.62C136.75 174.56 136.7 174.48 136.66 174.39C136.63 174.29 136.62 174.2 136.63 174.1C136.63 174.04 136.64 173.99 136.67 173.94C136.7 173.89 136.74 173.85 136.8 173.82C137.25 173.59 138.59 174.41 138.74 174.5C138.75 174.51 138.76 174.53 138.77 174.55C138.78 174.56 138.78 174.58 138.78 174.6C138.78 174.62 138.77 174.64 138.75 174.65C138.74 174.67 138.73 174.68 138.71 174.68C138.35 174.77 137.99 174.82 137.63 174.83ZM137.01 173.97C136.97 173.97 136.93 173.98 136.89 174C136.87 174.01 136.85 174.03 136.84 174.05C136.83 174.07 136.82 174.09 136.82 174.11C136.82 174.18 136.82 174.25 136.85 174.31C136.87 174.37 136.91 174.42 136.96 174.47C137.42 174.68 137.94 174.71 138.42 174.54C137.99 174.26 137.51 174.07 137.01 173.97L137.01 173.97Z" fill="#407BFF" fill-opacity="1.000000" fill-rule="nonzero"/>
	<path id="Path 25746" d="M138.68 174.68C138.66 174.68 138.65 174.68 138.63 174.67C138.21 174.44 137.38 173.53 137.47 173.07C137.48 173 137.52 172.94 137.58 172.89C137.63 172.84 137.7 172.82 137.78 172.82C137.85 172.81 137.93 172.81 138 172.83C138.07 172.86 138.14 172.89 138.19 172.94C138.67 173.33 138.77 174.53 138.78 174.58C138.78 174.59 138.77 174.61 138.77 174.63C138.76 174.64 138.75 174.66 138.73 174.67C138.72 174.68 138.7 174.68 138.68 174.68ZM137.85 173.01L137.8 173.01C137.67 173.03 137.66 173.08 137.66 173.11C137.61 173.38 138.13 174.07 138.56 174.39C138.53 173.92 138.36 173.46 138.07 173.09C138.01 173.04 137.93 173.01 137.85 173.01Z" fill="#407BFF" fill-opacity="1.000000" fill-rule="nonzero"/>
	<path id="Path 25747" d="M120.39 174.05L120.38 174.06C119.73 174.27 118.57 174.56 118.08 174.21C118 174.16 117.94 174.1 117.9 174.02C117.86 173.94 117.84 173.85 117.84 173.76C117.84 173.71 117.85 173.65 117.87 173.61C117.89 173.56 117.93 173.52 117.97 173.48C118.44 173.16 120.18 173.8 120.38 173.88C120.4 173.88 120.41 173.89 120.42 173.91C120.43 173.92 120.44 173.94 120.44 173.96C120.44 173.98 120.44 174 120.43 174.01C120.42 174.03 120.41 174.04 120.39 174.05L120.39 174.05ZM118.11 173.63L118.09 173.64C118.07 173.65 118.05 173.67 118.05 173.69C118.04 173.71 118.03 173.73 118.04 173.75C118.04 173.81 118.05 173.87 118.08 173.92C118.1 173.97 118.14 174.02 118.19 174.05C118.8 174.24 119.45 174.21 120.04 173.95C119.43 173.68 118.77 173.57 118.11 173.63L118.11 173.63Z" fill="#407BFF" fill-opacity="1.000000" fill-rule="nonzero"/>
	<path id="Path 25748" d="M120.39 174.05C120.37 174.06 120.34 174.07 120.32 174.06C119.8 173.89 118.72 173.12 118.74 172.64C118.74 172.53 118.8 172.39 119.07 172.33C119.16 172.31 119.26 172.31 119.36 172.33C119.45 172.34 119.55 172.38 119.63 172.44C120.05 172.84 120.34 173.37 120.44 173.95C120.45 173.96 120.44 173.98 120.44 174C120.43 174.01 120.42 174.03 120.41 174.04C120.41 174.04 120.4 174.05 120.39 174.05ZM119 172.56C118.93 172.6 118.93 172.64 118.93 172.66C118.92 172.94 119.66 173.56 120.2 173.81C120.1 173.35 119.87 172.93 119.52 172.61C119.46 172.57 119.39 172.54 119.32 172.53C119.25 172.51 119.18 172.51 119.11 172.53C119.07 172.54 119.04 172.55 119 172.56Z" fill="#407BFF" fill-opacity="1.000000" fill-rule="nonzero"/>
	<path id="Path 25749" d="M145.98 50.47C145.87 52.09 145.68 53.59 145.49 55.14C145.29 56.69 145.02 58.21 144.73 59.75C144.16 62.88 143.31 65.96 142.19 68.95L141.7 70.11L141.58 70.4L141.55 70.47L141.5 70.58L141.35 70.86C141.16 71.21 140.93 71.53 140.67 71.83C140.24 72.31 139.74 72.73 139.18 73.06C138.72 73.33 138.25 73.56 137.76 73.75C136.12 74.34 134.41 74.7 132.67 74.81C129.51 75.04 126.34 74.93 123.22 74.46L123.33 71.36L125.51 71.11C126.25 71.02 126.98 70.91 127.7 70.81C129.15 70.6 130.58 70.36 131.95 70.04C133.21 69.78 134.44 69.38 135.6 68.83C135.92 68.7 136.19 68.49 136.4 68.22C136.41 68.15 136.26 68.46 136.44 67.96L136.77 67.01C137.57 64.26 138.18 61.47 138.6 58.65C138.84 57.21 139.04 55.76 139.23 54.3C139.43 52.85 139.59 51.36 139.74 49.97L145.98 50.47Z" fill="#FFC3BD" fill-opacity="1.000000" fill-rule="nonzero"/>
	<path id="Path 25750" d="M146.34 47.48C148.36 50.87 146.64 61.53 146.64 61.53L136.04 59.57C136.04 59.57 135.46 53.47 137.48 48.78C139.67 43.67 143.89 43.37 146.34 47.48Z" fill="#407BFF" fill-opacity="1.000000" fill-rule="nonzero"/>
	<path id="Path 25751" d="M120.36 80.95L114.74 54.78C114.47 53.67 113.84 52.67 112.95 51.94C112.06 51.21 110.96 50.78 109.82 50.73L88.26 50.73C89.41 50.78 90.51 51.21 91.4 51.94C92.29 52.67 92.91 53.67 93.18 54.78L98.81 80.95C99.08 82.06 99.7 83.06 100.59 83.79C101.48 84.52 102.58 84.95 103.73 85L125.28 85C124.13 84.95 123.03 84.52 122.14 83.79C121.26 83.06 120.63 82.06 120.36 80.95Z" fill="#263238" fill-opacity="1.000000" fill-rule="nonzero"/>
	<g opacity="0.700000">
		<path id="Path 25752" d="M120.36 80.95L114.74 54.78C114.47 53.67 113.84 52.67 112.95 51.94C112.06 51.21 110.96 50.78 109.82 50.73L88.26 50.73C89.41 50.78 90.51 51.21 91.4 51.94C92.29 52.67 92.91 53.67 93.18 54.78L98.81 80.95C99.08 82.06 99.7 83.06 100.59 83.79C101.48 84.52 102.58 84.95 103.73 85L125.28 85C124.13 84.95 123.03 84.52 122.14 83.79C121.26 83.06 120.63 82.06 120.36 80.95Z" fill="#407BFF" fill-opacity="1.000000" fill-rule="nonzero"/>
	</g>
	<path id="Path 25753" d="M88.26 50.73L109.81 50.73C108.71 50.75 107.65 51.18 106.84 51.92C106.03 52.67 105.51 53.69 105.4 54.78L99.81 115.58C99.69 116.68 99.18 117.7 98.36 118.44C97.55 119.19 96.49 119.61 95.39 119.63L81.94 119.63C81.42 119.64 80.9 119.54 80.43 119.34C79.95 119.13 79.52 118.83 79.18 118.44C78.83 118.06 78.56 117.61 78.41 117.11C78.25 116.62 78.19 116.1 78.25 115.58L83.85 54.78C83.96 53.69 84.47 52.67 85.29 51.92C86.1 51.18 87.16 50.75 88.26 50.73Z" fill="#407BFF" fill-opacity="1.000000" fill-rule="nonzero"/>
	<path id="Path 25754" d="M91.71 115.58C91.65 116.1 91.7 116.62 91.86 117.11C92.02 117.61 92.28 118.06 92.63 118.44C92.98 118.83 93.4 119.13 93.88 119.34C94.35 119.54 94.87 119.64 95.39 119.63L73.83 119.63C73.32 119.64 72.8 119.54 72.33 119.34C71.85 119.13 71.42 118.83 71.08 118.44C70.73 118.06 70.46 117.61 70.3 117.11C70.15 116.62 70.09 116.1 70.15 115.58L91.71 115.58Z" fill="#263238" fill-opacity="1.000000" fill-rule="nonzero"/>
	<g opacity="0.700000">
		<path id="Path 25755" d="M91.71 115.58C91.65 116.1 91.7 116.62 91.86 117.11C92.02 117.61 92.28 118.06 92.63 118.44C92.98 118.83 93.4 119.13 93.88 119.34C94.35 119.54 94.87 119.64 95.39 119.63L73.83 119.63C73.32 119.64 72.8 119.54 72.33 119.34C71.85 119.13 71.42 118.83 71.08 118.44C70.73 118.06 70.46 117.61 70.3 117.11C70.15 116.62 70.09 116.1 70.15 115.58L91.71 115.58Z" fill="#407BFF" fill-opacity="1.000000" fill-rule="nonzero"/>
	</g>
	<g opacity="0.500000">
		<g opacity="0.500000">
			<path id="Path 25756" d="M101.66 57.55L87.08 57.55C86.96 57.55 86.85 57.52 86.75 57.48C86.65 57.43 86.55 57.37 86.48 57.28C86.4 57.2 86.35 57.1 86.31 57C86.28 56.89 86.26 56.77 86.28 56.66C86.3 56.42 86.41 56.2 86.59 56.04C86.77 55.88 87 55.79 87.24 55.78L101.82 55.78C101.93 55.78 102.05 55.8 102.15 55.85C102.25 55.89 102.34 55.96 102.42 56.04C102.5 56.12 102.55 56.22 102.59 56.33C102.62 56.44 102.63 56.55 102.62 56.66C102.6 56.9 102.48 57.12 102.31 57.28C102.13 57.45 101.9 57.54 101.66 57.55Z" fill="#FFFFFF" fill-opacity="1.000000" fill-rule="nonzero"/>
		</g>
		<g opacity="0.500000">
			<path id="Path 25757" d="M101.23 62.32L86.64 62.32C86.53 62.32 86.42 62.3 86.32 62.25C86.21 62.21 86.12 62.14 86.04 62.06C85.97 61.97 85.91 61.87 85.88 61.77C85.84 61.66 85.83 61.55 85.84 61.43C85.87 61.2 85.98 60.97 86.16 60.81C86.33 60.65 86.56 60.56 86.8 60.55L101.39 60.55C101.5 60.55 101.61 60.57 101.72 60.62C101.82 60.66 101.91 60.73 101.99 60.81C102.06 60.9 102.12 60.99 102.16 61.1C102.19 61.21 102.2 61.32 102.19 61.43C102.16 61.67 102.05 61.89 101.87 62.06C101.7 62.22 101.47 62.31 101.23 62.32Z" fill="#FFFFFF" fill-opacity="1.000000" fill-rule="nonzero"/>
		</g>
		<g opacity="0.500000">
			<path id="Path 25758" d="M97.22 67.09L86.21 67.09C86.1 67.09 85.98 67.07 85.88 67.02C85.78 66.98 85.69 66.91 85.61 66.83C85.53 66.74 85.48 66.64 85.44 66.54C85.41 66.43 85.4 66.32 85.41 66.21C85.43 65.97 85.55 65.75 85.72 65.58C85.9 65.42 86.13 65.33 86.37 65.32L97.38 65.32C97.49 65.32 97.6 65.34 97.71 65.39C97.81 65.43 97.9 65.5 97.98 65.58C98.05 65.67 98.11 65.77 98.15 65.87C98.18 65.98 98.19 66.09 98.18 66.21C98.15 66.44 98.04 66.66 97.87 66.83C97.69 66.99 97.46 67.08 97.22 67.09Z" fill="#FFFFFF" fill-opacity="1.000000" fill-rule="nonzero"/>
		</g>
		<g opacity="0.500000">
			<path id="Path 25759" d="M89.51 71.86L85.78 71.86C85.66 71.86 85.55 71.84 85.45 71.79C85.35 71.75 85.25 71.68 85.18 71.6C85.1 71.51 85.04 71.41 85.01 71.31C84.98 71.2 84.96 71.09 84.98 70.98C85 70.74 85.11 70.52 85.29 70.35C85.47 70.19 85.7 70.1 85.94 70.09L89.67 70.09C89.78 70.09 89.9 70.11 90 70.16C90.1 70.2 90.19 70.27 90.27 70.35C90.35 70.44 90.4 70.54 90.44 70.64C90.47 70.75 90.48 70.86 90.47 70.98C90.45 71.21 90.33 71.43 90.16 71.6C89.98 71.76 89.75 71.85 89.51 71.86Z" fill="#FFFFFF" fill-opacity="1.000000" fill-rule="nonzero"/>
		</g>
		<g opacity="0.500000">
			<path id="Path 25760" d="M99.92 76.63L85.34 76.63C85.22 76.63 85.11 76.61 85.01 76.56C84.91 76.52 84.81 76.45 84.74 76.37C84.66 76.28 84.61 76.19 84.57 76.08C84.54 75.97 84.52 75.86 84.54 75.75C84.56 75.51 84.67 75.29 84.85 75.12C85.03 74.96 85.26 74.87 85.5 74.86L100.08 74.86C100.2 74.86 100.31 74.88 100.41 74.93C100.51 74.97 100.61 75.04 100.68 75.12C100.76 75.21 100.82 75.31 100.85 75.41C100.88 75.52 100.9 75.63 100.88 75.75C100.86 75.98 100.75 76.2 100.57 76.37C100.39 76.53 100.16 76.62 99.92 76.63Z" fill="#FFFFFF" fill-opacity="1.000000" fill-rule="nonzero"/>
		</g>
		<g opacity="0.500000">
			<path id="Path 25761" d="M93.75 81.4L84.91 81.4C84.8 81.4 84.68 81.38 84.58 81.33C84.48 81.29 84.38 81.22 84.31 81.14C84.23 81.06 84.18 80.96 84.14 80.85C84.11 80.74 84.1 80.63 84.11 80.52C84.13 80.28 84.25 80.06 84.42 79.89C84.6 79.73 84.83 79.64 85.07 79.63L93.91 79.63C94.02 79.63 94.13 79.66 94.24 79.7C94.34 79.75 94.43 79.81 94.51 79.9C94.58 79.98 94.64 80.08 94.68 80.18C94.71 80.29 94.72 80.41 94.71 80.52C94.68 80.76 94.57 80.98 94.39 81.14C94.22 81.3 93.99 81.39 93.75 81.4Z" fill="#FFFFFF" fill-opacity="1.000000" fill-rule="nonzero"/>
		</g>
		<g opacity="0.500000">
			<path id="Path 25762" d="M99.06 86.17L84.47 86.17C84.36 86.17 84.25 86.15 84.15 86.1C84.04 86.06 83.95 85.99 83.87 85.91C83.8 85.83 83.74 85.73 83.71 85.62C83.67 85.51 83.66 85.4 83.67 85.29C83.7 85.05 83.81 84.83 83.99 84.66C84.17 84.5 84.4 84.41 84.64 84.4L99.22 84.4C99.33 84.4 99.45 84.43 99.55 84.47C99.65 84.52 99.74 84.58 99.82 84.67C99.9 84.75 99.95 84.85 99.99 84.95C100.02 85.06 100.03 85.18 100.02 85.29C100 85.53 99.88 85.75 99.71 85.91C99.53 86.07 99.3 86.16 99.06 86.17Z" fill="#FFFFFF" fill-opacity="1.000000" fill-rule="nonzero"/>
		</g>
		<g opacity="0.500000">
			<path id="Path 25763" d="M95.05 90.94L84.04 90.94C83.93 90.94 83.82 90.92 83.71 90.87C83.61 90.83 83.52 90.76 83.44 90.68C83.37 90.6 83.31 90.5 83.27 90.39C83.24 90.28 83.23 90.17 83.24 90.06C83.27 89.82 83.38 89.6 83.55 89.44C83.73 89.27 83.96 89.18 84.2 89.18L95.21 89.18C95.32 89.17 95.44 89.2 95.54 89.24C95.64 89.29 95.73 89.35 95.81 89.44C95.89 89.52 95.94 89.62 95.98 89.73C96.01 89.83 96.02 89.95 96.01 90.06C95.99 90.3 95.87 90.52 95.7 90.68C95.52 90.84 95.29 90.93 95.05 90.94Z" fill="#FFFFFF" fill-opacity="1.000000" fill-rule="nonzero"/>
		</g>
		<g opacity="0.500000">
			<path id="Path 25764" d="M87.34 95.71L83.6 95.71C83.49 95.71 83.38 95.69 83.28 95.64C83.17 95.6 83.08 95.53 83.01 95.45C82.93 95.37 82.87 95.27 82.84 95.16C82.8 95.05 82.79 94.94 82.8 94.83C82.83 94.59 82.94 94.37 83.12 94.21C83.3 94.04 83.53 93.95 83.77 93.95L87.5 93.95C87.62 93.94 87.73 93.97 87.83 94.01C87.93 94.06 88.03 94.12 88.1 94.21C88.18 94.29 88.24 94.39 88.27 94.5C88.31 94.6 88.32 94.72 88.3 94.83C88.28 95.07 88.17 95.29 87.99 95.45C87.81 95.61 87.58 95.71 87.34 95.71Z" fill="#FFFFFF" fill-opacity="1.000000" fill-rule="nonzero"/>
		</g>
		<g opacity="0.500000">
			<path id="Path 25765" d="M97.76 100.48L83.17 100.48C83.06 100.48 82.95 100.46 82.84 100.42C82.74 100.37 82.65 100.31 82.57 100.22C82.5 100.14 82.44 100.04 82.41 99.93C82.37 99.83 82.36 99.71 82.37 99.6C82.4 99.36 82.51 99.14 82.69 98.98C82.86 98.82 83.09 98.72 83.33 98.72L97.92 98.72C98.03 98.72 98.14 98.74 98.25 98.78C98.35 98.83 98.44 98.9 98.52 98.98C98.59 99.06 98.65 99.16 98.68 99.27C98.72 99.37 98.73 99.49 98.72 99.6C98.69 99.84 98.58 100.06 98.4 100.22C98.23 100.38 98 100.48 97.76 100.48Z" fill="#FFFFFF" fill-opacity="1.000000" fill-rule="nonzero"/>
		</g>
		<g opacity="0.500000">
			<path id="Path 25766" d="M91.58 105.25L82.74 105.25C82.63 105.25 82.51 105.23 82.41 105.19C82.31 105.14 82.22 105.08 82.14 104.99C82.06 104.91 82.01 104.81 81.97 104.7C81.94 104.6 81.93 104.48 81.94 104.37C81.96 104.13 82.08 103.91 82.25 103.75C82.43 103.59 82.66 103.49 82.9 103.49L91.74 103.49C91.85 103.49 91.96 103.51 92.07 103.55C92.17 103.6 92.26 103.67 92.34 103.75C92.41 103.83 92.47 103.93 92.51 104.04C92.54 104.15 92.55 104.26 92.54 104.37C92.51 104.61 92.4 104.83 92.23 104.99C92.05 105.15 91.82 105.25 91.58 105.25Z" fill="#FFFFFF" fill-opacity="1.000000" fill-rule="nonzero"/>
		</g>
		<g opacity="0.500000">
			<path id="Path 25767" d="M96.89 110.02L82.3 110.02C82.19 110.03 82.08 110 81.98 109.96C81.87 109.91 81.78 109.85 81.71 109.76C81.63 109.68 81.57 109.58 81.54 109.47C81.5 109.37 81.49 109.25 81.5 109.14C81.53 108.9 81.64 108.68 81.82 108.52C82 108.36 82.23 108.26 82.47 108.26L97.05 108.26C97.16 108.26 97.27 108.28 97.38 108.33C97.48 108.37 97.57 108.44 97.65 108.52C97.72 108.6 97.78 108.7 97.81 108.81C97.85 108.92 97.86 109.03 97.85 109.14C97.82 109.38 97.71 109.6 97.53 109.76C97.36 109.93 97.13 110.02 96.89 110.02Z" fill="#FFFFFF" fill-opacity="1.000000" fill-rule="nonzero"/>
		</g>
	</g>
	<path id="Path 25768" d="M124.6 71.69L121.43 68.94L119.95 74.01C119.95 74.01 123.17 75.75 124.28 74.15L124.6 71.69Z" fill="#FFC3BD" fill-opacity="1.000000" fill-rule="nonzero"/>
	<path id="Path 25769" d="M117.98 68.75L116.95 72.99L119.95 74.01L121.43 68.94L117.98 68.75Z" fill="#FFC3BD" fill-opacity="1.000000" fill-rule="nonzero"/>
</svg>
